<?xml version="1.0" encoding="utf-8"?>
<!-- Generator: Adobe Illustrator 18.1.1, SVG Export Plug-In . SVG Version: 6.00 Build 0)  -->
<svg version="1.1" id="Layer_1" xmlns="http://www.w3.org/2000/svg" xmlns:xlink="http://www.w3.org/1999/xlink" x="0px" y="0px"
	 viewBox="0 0 77.8 69.8" enable-background="new 0 0 77.8 69.8" xml:space="preserve">
<g>
	<path fill="#2AACE3" d="M77.8,69.8H0V0h77.8V69.8z M2,67.8h73.8V2H2V67.8z"/>
</g>
<g>
	<rect x="21" y="8.5" fill="#2AACE3" width="35.7" height="2"/>
</g>
<g>
	<path fill="#2AACE3" d="M38.9,60.6c-12.3,0-22.3-10-22.3-22.3S26.6,16,38.9,16s22.3,10,22.3,22.3S51.2,60.6,38.9,60.6z M38.9,18
		c-11.2,0-20.3,9.1-20.3,20.3s9.1,20.3,20.3,20.3s20.3-9.1,20.3-20.3S50.1,18,38.9,18z"/>
</g>
<g>
	<path fill="#2AACE3" d="M39,51.7c-2.1,0-7.4-0.5-11.1-5.6c-0.2-0.2-0.3-0.4-0.3-0.5l-0.6-1.1l1.2-0.3c0.4-0.1,1.3-0.1,2.2-0.1
		c0.5,0,0.9,0,1.3,0c2.1,0,4.2-0.3,4.6-2.2c-0.2-0.1-0.4-0.3-0.5-0.4c-0.7-0.6-1.1-1.4-1.3-2.2c-1.3-0.1-2.3-0.1-3.2-0.2
		c-4.2-0.2-4.6-0.2-5.3-1.1c-0.7-0.9-0.6-2.7,0.2-4.7c1.5-3.6,5.2-7.6,11.1-8.3c0.2,0,0.5,0,0.6,0l1.2,0.1L39,26.3
		c-0.1,0.5-0.6,1.2-1.1,2c-1.6,2.5-2.7,4.8-1,6.2C37.8,34,39,34,40,34.3c0.6-0.9,1.1-1.7,1.5-2.4l0.2-0.3c2.3-3.5,2.5-3.8,3.6-4
		c1.2-0.2,3.1,1.1,4.5,3.3c1,1.5,3.9,6.8,1.1,13c-0.1,0.3-0.2,0.4-0.3,0.5l-0.7,1l-0.9-0.9c-0.4-0.4-0.7-1.1-1.2-2
		c-0.9-1.7-2.2-4.1-4-4.1c-0.3,0-0.5,0-0.8,0.1c-0.1,1-0.4,1.9-1.1,2.6c-0.1,0.1-0.1,0.1-0.2,0.2c0.6,1.2,1.1,2.1,1.5,2.9
		c1.9,3.8,2.1,4.1,1.7,5.1C44.3,50.8,41.9,51.7,39,51.7z M30.5,46.1c3,3.2,6.9,3.6,8.5,3.6c2.4,0,3.8-0.7,4-1c0,0,0-0.1,0-0.1
		c0-0.2-0.8-1.7-1.6-3.3c-0.4-0.9-1-1.9-1.6-3.1c-0.3-0.7-0.2-1.5,0.4-2c0.1-0.1,0.2-0.1,0.2-0.2c0.4-0.4,0.6-0.9,0.6-1.5
		c0-0.7,0.4-1.3,1-1.5c0.6-0.2,1.2-0.4,1.7-0.4c3,0,4.7,3.1,5.8,5.2c0,0,0,0,0,0c1.4-4.7-0.7-8.5-1.5-9.7c-1.2-1.8-2.3-2.4-2.6-2.4
		c0,0-0.1,0-0.1,0c-0.2,0.2-1.1,1.6-2.1,3.1L43.2,33c-0.5,0.7-1,1.6-1.7,2.6c-0.4,0.6-1.3,0.9-2,0.7c-0.6-0.2-1.3-0.2-1.9,0.1
		c-0.2,0.1-0.5,0.2-0.8,0.2l0,0c-0.4,0-0.7-0.1-1-0.3c-3.6-2.6-1-6.8,0.3-9c-4.2,1-6.8,4.1-8,6.8c-0.7,1.7-0.6,2.6-0.5,2.8
		c0,0,0,0,0.1,0.1c0.2,0.1,1.8,0.2,3.7,0.3c0.9,0,2.1,0.1,3.4,0.2c0.8,0,1.4,0.6,1.6,1.4c0.1,0.5,0.3,1,0.7,1.3
		c0.1,0.1,0.2,0.2,0.4,0.3c0.6,0.3,0.9,1,0.8,1.7c-0.5,4.2-5.1,4.2-6.6,4.2C31.4,46.2,31,46.2,30.5,46.1
		C30.5,46.1,30.5,46.1,30.5,46.1z"/>
</g>
</svg>
