<?xml version="1.0" encoding="utf-8"?>
<!-- Generator: Adobe Illustrator 18.1.1, SVG Export Plug-In . SVG Version: 6.00 Build 0)  -->
<svg version="1.1" id="Layer_1" xmlns="http://www.w3.org/2000/svg" xmlns:xlink="http://www.w3.org/1999/xlink" x="0px" y="0px"
	 viewBox="0 0 77.8 69.8" enable-background="new 0 0 77.8 69.8" xml:space="preserve">
<g>
	<rect x="21.1" y="8.6" fill="#2AACE3" width="35.6" height="2"/>
</g>
<g>
	<path fill="#2AACE3" d="M38.9,60.7c-12.3,0-22.3-10-22.3-22.3s10-22.3,22.3-22.3s22.3,10,22.3,22.3S51.2,60.7,38.9,60.7z
		 M38.9,18.1c-11.2,0-20.3,9.1-20.3,20.3s9.1,20.3,20.3,20.3s20.3-9.1,20.3-20.3S50.1,18.1,38.9,18.1z"/>
</g>
<g>
	<path fill="#2AACE3" d="M18.5,41.6l-1.3-1.6c7.1-5.8,13.2-7.9,18.2-6.4c2.1,0.6,3.4,1.8,4.7,2.8c1.2,1,2.4,2,4.2,2.5
		c4.1,1.1,9.1-0.7,14.9-5.5l1.3,1.5c-6.3,5.2-11.9,7.2-16.7,5.8c-2.2-0.6-3.6-1.8-4.9-2.9c-1.2-1-2.3-1.9-4-2.5
		C30.6,34.2,25.1,36.3,18.5,41.6z"/>
</g>
<g>
	<path fill="#2AACE3" d="M77.8,69.8H0V0h77.8V69.8z M2,67.8h73.8V2H2V67.8z"/>
</g>
</svg>
