<?xml version="1.0" encoding="utf-8"?>
<!-- Generator: Adobe Illustrator 18.1.1, SVG Export Plug-In . SVG Version: 6.00 Build 0)  -->
<svg version="1.1" id="Layer_1" xmlns="http://www.w3.org/2000/svg" xmlns:xlink="http://www.w3.org/1999/xlink" x="0px" y="0px"
	 viewBox="0 0 47.1 73.7" enable-background="new 0 0 47.1 73.7" xml:space="preserve">
<g>
	<g>
		<g>
			
				<rect x="20.6" y="54.1" transform="matrix(0.3134 0.9496 -0.9496 0.3134 72.747 21.4341)" fill="#2AACE3" width="2" height="13.9"/>
		</g>
		<g>
			
				<rect x="22.5" y="57" transform="matrix(0.3174 0.9483 -0.9483 0.3174 78.7203 22.7802)" fill="#2AACE3" width="2" height="18.1"/>
		</g>
		<g>
			
				<rect x="23.7" y="65.5" transform="matrix(0.3134 0.9496 -0.9496 0.3134 84.4598 25.2912)" fill="#2AACE3" width="2" height="11.1"/>
		</g>
		<g>
			<g>
				<path fill="none" stroke="#2AACE3" stroke-width="2" stroke-miterlimit="10" d="M44.2,0.2"/>
			</g>
		</g>
		<g>
			<g>
				<path fill="#2AACE3" d="M33.1,59.1H14l0-1c0.1-1.7,0-7.9-4-14.1c-1.1-1.8-2.3-3.4-3.3-4.9C3.1,34,0,29.6,0,23.5
					C0,10.6,10.6,0,23.5,0c13,0,23.5,10.6,23.5,23.5c0,6-3.1,10.4-6.7,15.5c-1.1,1.5-2.2,3.2-3.3,4.9c-4,6.2-4,12.3-4,14.1
					L33.1,59.1z M16,57.1h15.1c0-2.7,0.6-8.4,4.3-14.2c1.2-1.8,2.3-3.4,3.4-5c3.5-5,6.3-9,6.3-14.4C45.1,11.7,35.4,2,23.5,2
					C11.7,2,2,11.7,2,23.5c0,5.4,2.8,9.4,6.3,14.4c1.1,1.6,2.2,3.2,3.4,5C15.4,48.7,16,54.4,16,57.1z"/>
			</g>
		</g>
	</g>
</g>
</svg>
